<?xml version="1.0" standalone="no"?>
<!DOCTYPE svg PUBLIC "-//W3C//DTD SVG 1.1//EN" "http://www.w3.org/Graphics/SVG/1.1/DTD/svg11.dtd" >
<svg xmlns="http://www.w3.org/2000/svg">
<metadata></metadata>
<defs>
<font id="StereofidelicRegular" horiz-adv-x="681" >
<font-face units-per-em="2048" ascent="1542" descent="-506" />
<missing-glyph horiz-adv-x="409" />
<glyph horiz-adv-x="0" />
<glyph horiz-adv-x="2048" />
<glyph unicode=" "  horiz-adv-x="409" />
<glyph unicode="&#x09;" horiz-adv-x="409" />
<glyph unicode="&#xa0;" horiz-adv-x="409" />
<glyph unicode="!" horiz-adv-x="415" d="M-35 213l137 4l-2 66l168 4l2 -64l140 6l-215 -229zM59 1524l168 6l39 -1155l-168 -4z" />
<glyph unicode="&#x22;" horiz-adv-x="565" d="M47 1870h182v-223l-67 -263h-60l-36 166q-7 18 -17 84zM319 1876l183 -6v-215q-12 -44 -34.5 -131t-33.5 -129h-57l-39 166q-6 16 -16 81z" />
<glyph unicode="#" horiz-adv-x="1271" d="M78 410l45 151h252l88 301h-270l43 152h272l131 469h135l-131 -469h242l133 469h135l-131 -469h250l-43 -152h-250l-86 -301h264l-43 -151h-264l-133 -465h-135l133 465h-244l-135 -465h-133l131 465h-256zM512 559h246l88 303h-248z" />
<glyph unicode="$" horiz-adv-x="649" d="M53 1190q0 141 59.5 246t159.5 137l-4 184l78 2l4 -184q127 -21 213 -154l-90 -121q-41 75 -117 99l13 -500q146 -132 205 -247.5t59 -268.5q0 -158 -65.5 -265.5t-178.5 -127.5l6 -183l-78 -2l-2 183q-183 38 -247 207l104 124q40 -97 137 -151l-14 549 q-242 205 -242 473zM195 1214q0 -129 96 -251l-12 434q-84 -69 -84 -183zM373 657l12 -487q100 46 100 219q0 156 -112 268z" />
<glyph unicode="%" horiz-adv-x="849" d="M31 965v278q0 106 50.5 177t131.5 71q78 0 125 -70.5t47 -179.5v-280q0 -265 -176 -265q-178 0 -178 269zM115 -16l544 1515h123l-546 -1515h-121zM139 965q0 -117 74 -117q61 0 61 117v313q0 96 -65 96q-70 0 -70 -96v-313zM496 201v276q0 242 182 242q170 0 170 -246 v-278q0 -267 -178 -267q-174 0 -174 273zM610 154q0 -48 18.5 -83.5t49.5 -35.5q27 0 47 36t20 83v354q0 98 -67 98q-68 0 -68 -96v-356z" />
<glyph unicode="&#x26;" horiz-adv-x="727" d="M49 336q0 205 141 436q-96 259 -96 451q0 152 61 252t156 100q94 0 153.5 -93t59.5 -229q0 -111 -29.5 -194.5t-138.5 -288.5q50 -144 152 -324q55 151 67 365l134 -41q-12 -256 -103 -471q47 -72 101 -98l2 -203q-98 9 -191 131q-91 -143 -215 -143q-109 0 -181.5 102.5 t-72.5 247.5zM197 367q0 -71 32.5 -120.5t85.5 -49.5q66 0 107 84q-73 102 -164 319q-61 -131 -61 -233zM219 1245q0 -139 74 -319q102 200 102 348q0 72 -26.5 119t-59.5 47q-90 0 -90 -195z" />
<glyph unicode="'" horiz-adv-x="241" d="M35 1620v238h180l2 -226q-18 -46 -50 -139.5t-42 -120.5h-59l36 248h-67z" />
<glyph unicode="(" horiz-adv-x="440" d="M74 829q0 402 168 777l133 6q-154 -368 -154 -770q0 -500 225 -928l-98 -80q-274 477 -274 995z" />
<glyph unicode=")" horiz-adv-x="382" d="M41 -133q192 399 192 862q0 440 -182 834h137q195 -399 195 -832q0 -490 -244 -940z" />
<glyph unicode="*" horiz-adv-x="1062" d="M68 958l88 273l327 -205l-96 373h285l-92 -373l327 205l88 -273l-385 -24l297 -246l-235 -172l-142 358l-143 -358l-231 172l295 246z" />
<glyph unicode="+" horiz-adv-x="503" d="M31 549v145h178v256h121v-256h174v-145h-174v-258h-121v258h-178z" />
<glyph unicode="," horiz-adv-x="280" d="M86 -8v235l180 2q0 -43 1 -99.5t1 -68.5v-57q-23 -60 -92 -260h-57l35 248h-68z" />
<glyph unicode="-" horiz-adv-x="462" d="M76 508v131h383v-131h-383z" />
<glyph unicode="." horiz-adv-x="282" d="M111 16v213h157v-209z" />
<glyph unicode="/" horiz-adv-x="559" d="M-43 -154l492 1749h110l-493 -1749h-109z" />
<glyph unicode="0" horiz-adv-x="663" d="M88 244q0 27 1.5 123t4.5 285.5t6 383.5q3 371 281 371q122 0 192 -104t70 -273q0 -156 -10 -801q-6 -405 -279 -405q-137 0 -201.5 104.5t-64.5 315.5zM246 172q-2 -66 30 -115t84 -49q50 0 79.5 46.5t31.5 115.5l14 907q0 57 -32 99.5t-80 42.5q-53 0 -83 -39t-30 -99z " />
<glyph unicode="1" horiz-adv-x="356" d="M-29 1380q134 66 199 189l109 4l38 -1514l-163 -6l-29 1202l-152 -6z" />
<glyph unicode="2" horiz-adv-x="626" d="M59 297q173 312 279 612q51 147 73.5 240.5t22.5 175.5q0 148 -108 148q-63 0 -90 -67t-27 -218v-37h-150v14q0 244 65.5 363t205.5 119q120 0 186 -93t66 -262q0 -206 -123 -514q-62 -158 -232 -487l359 6l4 -191l-527 -12z" />
<glyph unicode="3" horiz-adv-x="624" d="M35 971v63q0 186 67 296t181 110q241 0 241 -463q0 -223 -110 -311q87 -48 123 -137.5t36 -270.5q0 -414 -247 -414q-254 0 -275 480l154 6q9 -301 114 -301q107 0 107 200q0 134 -20.5 207.5t-61 101t-113.5 27.5l-4 187q156 15 156 239q0 258 -102 258q-99 0 -99 -202 q0 -45 6 -72z" />
<glyph unicode="4" horiz-adv-x="665" d="M31 690l280 965l160 4l33 -967l137 4l8 -170l-139 -4l12 -379l-151 -4l-15 377l-317 -12zM166 680l184 8l-20 612z" />
<glyph unicode="5" horiz-adv-x="612" d="M90 436l146 -2q-3 -27 -3 -49v-39q0 -260 105 -260q42 0 75 49t33 123q2 99 3.5 199t2.5 145.5t1 56.5q0 140 -93 140q-78 0 -116 -123l-121 8v817h465v-184h-340l-6 -467q102 123 186 123q172 0 172 -301q0 -140 -6 -404q-3 -171 -73 -263.5t-191 -92.5q-130 0 -185 119 t-55 405z" />
<glyph unicode="6" horiz-adv-x="659" d="M90 397l2 750q0 171 72.5 273t206.5 102q263 0 266 -457h-162l2 43q0 225 -110 225q-53 0 -83 -40t-30 -99v-377q92 121 186 121q201 0 201 -352q0 -92 -3 -160t-10.5 -134t-20.5 -111.5t-34 -85t-50.5 -62.5t-70 -36t-92.5 -13q-270 0 -270 413zM252 332 q0 -67 31 -116.5t79 -49.5t80.5 49t32.5 117v299q0 137 -94 137q-75 0 -127 -113z" />
<glyph unicode="7" horiz-adv-x="526" d="M74 1262l8 190l493 -18q0 -71 -8 -150l-284 -1399l-156 4l283 1358z" />
<glyph unicode="8" horiz-adv-x="614" d="M59 526q0 268 131 375q-116 101 -116 361q0 380 241 380q244 0 244 -397q0 -240 -110 -344q137 -88 137 -414q0 -424 -260 -424q-267 0 -267 463zM213 543q0 -295 117 -295q102 0 102 270q0 275 -108 275q-111 0 -111 -250zM217 1257q0 -253 105 -253q92 0 92 235 q0 250 -99 250q-98 0 -98 -232z" />
<glyph unicode="9" horiz-adv-x="655" d="M16 1118q0 430 277 430q256 0 274 -403l37 -797q2 -29 2 -76q0 -165 -71 -257.5t-201 -92.5q-275 0 -275 445l160 6q3 -157 28 -209.5t89 -52.5q52 0 82.5 38.5t30.5 96.5l-23 473q-82 -119 -168 -119q-242 0 -242 518zM182 1196q0 -125 11 -233q11 -102 36 -148.5 t74 -46.5q39 0 65.5 28t51.5 87l-14 321q-3 76 -33.5 115t-85.5 39q-105 0 -105 -162z" />
<glyph unicode=":" horiz-adv-x="268" d="M88 668l156 4l8 -209l-158 -4zM104 231l156 5l8 -209l-155 -7z" />
<glyph unicode=";" horiz-adv-x="268" d="M106 -326l72 273l-67 2l6 209l155 -4l-6 -222q-22 -63 -100 -262zM127 385v209l152 -4v-209z" />
<glyph unicode="&#x3c;" horiz-adv-x="983" d="M-20 760l970 532l4 -164l-811 -438l832 -397l4 -162l-993 481z" />
<glyph unicode="=" horiz-adv-x="440" d="M61 295v139h385v-139h-385zM68 735v148l383 -6v-142h-383z" />
<glyph unicode="&#x3e;" horiz-adv-x="983" d="M-47 1311l1001 -473l7 -148l-965 -538l-6 159l807 447l-836 389z" />
<glyph unicode="?" horiz-adv-x="516" d="M-55 1292q52 285 245 285q107 0 171.5 -80t64.5 -215q0 -97 -45 -219q-98 -267 -98 -541q0 -109 4 -164l-142 -8q-4 32 -4 111q0 319 41 467q6 21 34 102t46.5 147.5t18.5 102.5q0 46 -24.5 83.5t-63.5 37.5q-73 0 -119 -168zM8 182l135 8l-4 64l168 10l4 -63l138 8 l-207 -236z" />
<glyph unicode="@" horiz-adv-x="952" d="M12 766q0 152 45.5 280.5t121 213t171 131.5t197.5 47q187 0 312.5 -149t125.5 -363q0 -115 -39 -221.5t-109.5 -174t-152.5 -67.5q-104 0 -125 72q-52 -70 -139 -70q-178 0 -178 252q0 97 32.5 188.5t93.5 152t134 60.5q78 0 119 -65l18 34h119l-80 -421q-2 -6 -2 -29 q0 -39 26 -39q46 0 83 54.5t55 128t18 143.5q0 166 -86 270t-225 104q-121 0 -215.5 -76t-143.5 -197.5t-49 -264.5q0 -192 99 -321.5t258 -129.5q161 0 317 144l55 -107q-175 -178 -379 -178q-104 0 -195 51t-152 134.5t-95.5 191t-34.5 221.5zM381 729q0 -149 63 -149 q32 0 65 50.5t53 121.5t20 131q0 108 -66 108q-54 0 -94.5 -81t-40.5 -181z" />
<glyph unicode="A" horiz-adv-x="671" d="M29 125l239 1505h228l180 -1562h-172l-47 381l-217 8l-50 -332h-161zM266 641l174 -4l-63 682z" />
<glyph unicode="B" horiz-adv-x="751" d="M111 -51l41 1513q297 -3 378 -43q154 -71 154 -332q0 -242 -154 -378q152 -116 152 -359q0 -409 -293 -409q-35 0 -278 8zM279 133h28q68 0 104 8t61 37t32.5 79t7.5 140q0 132 -44.5 178.5t-176.5 49.5zM297 813h14q15 0 23 -2h37q145 0 145 246q0 49 -4.5 83.5 t-16.5 56.5t-25 35t-38.5 20t-47.5 9.5t-60 5.5q-11 1 -17 1z" />
<glyph unicode="C" horiz-adv-x="663" d="M59 1245q0 170 73.5 265.5t211.5 95.5q260 0 260 -383q0 -123 -4 -166l-168 -4q6 105 6 157q0 215 -104 215q-111 0 -111 -168l27 -876q5 -176 112 -176q113 0 113 239q0 132 -6 181l164 4q4 -54 4 -119q0 -485 -279 -485q-133 0 -204.5 102t-75.5 305z" />
<glyph unicode="D" horiz-adv-x="700" d="M100 -49v1515l258 4q296 0 299 -407q1 -198 2.5 -368t3 -253t1.5 -84q0 -122 -18.5 -200t-64 -125t-113.5 -65.5t-175 -18.5h-37q-33 0 -53 2h-103zM272 150h74q85 0 118 38t32 142l-9 745q-1 116 -45 157.5t-163 41.5h-7v-1124z" />
<glyph unicode="E" horiz-adv-x="565" d="M55 1567l430 18l4 -194l-260 -9l15 -436l221 6l6 -192l-219 -6l16 -496l285 10l6 -200l-448 -15z" />
<glyph unicode="F" horiz-adv-x="538" d="M80 1466l432 11v-195h-264l10 -436h221l6 -195h-221l15 -694l-166 -4z" />
<glyph unicode="G" horiz-adv-x="659" d="M88 397v795q0 171 76 272t211 101q248 0 248 -346q0 -119 -9 -205h-153q10 88 10 188q0 180 -102 180q-113 0 -113 -176v-864q0 -178 113 -178q110 0 110 178v258h-112v166h272v-752h-129l-8 109q-64 -135 -187 -135q-110 0 -168.5 111t-58.5 298z" />
<glyph unicode="H" horiz-adv-x="692" d="M113 59l39 1467h163l-18 -633l219 -6l14 588l164 -5l-37 -1470h-165l18 696l-217 6l-19 -649z" />
<glyph unicode="I" horiz-adv-x="432" d="M25 1477l223 217l219 -221h-135v-62h-168v66h-139zM145 125v129h170l-4 -129h-166zM152 358v177l165 -5v-172h-165zM154 621v176l165 -2v-174h-165zM158 885v176l166 -4v-172h-166zM158 1147l4 176l168 -2l-4 -174h-168z" />
<glyph unicode="J" horiz-adv-x="708" d="M-61 631l213 229l229 -215l-137 -4l2 -63l-168 -9l-2 68zM80 496l168 6v-94q0 -232 125 -232q104 0 104 150l-39 1243l166 -15q7 -134 39 -1134l2 -39q0 -194 -67.5 -289.5t-210.5 -95.5q-105 0 -164 47.5t-87.5 153.5t-35.5 299z" />
<glyph unicode="K" horiz-adv-x="702" d="M59 1544l162 8l25 -649l215 613l160 6l-187 -518q33 -69 56 -175t37.5 -213.5t32.5 -217t53.5 -214t88.5 -176.5l-172 -6q-53 68 -84 179.5t-40 213t-26.5 221t-43.5 189.5l-80 -223l18 -545l-163 -6z" />
<glyph unicode="L" horiz-adv-x="569" d="M119 92v1516l157 8l-2 -1335h299v-189h-454z" />
<glyph unicode="M" horiz-adv-x="911" d="M115 92v1473h229l148 -965l151 965h231v-1516h-151v1057l-197 -1057h-73l-189 1059v-1016h-149z" />
<glyph unicode="N" horiz-adv-x="729" d="M111 -74l41 1534h147l250 -1020l29 969l153 -6l-39 -1471l-155 5l-246 952l-6 -2l-25 -965z" />
<glyph unicode="O" d="M100 444l23 822q5 173 80 269.5t207 96.5q126 0 199 -95.5t73 -248.5v-45l-18 -792q-4 -198 -77.5 -299t-209.5 -101q-143 0 -210 97t-67 296zM268 387q0 -65 30.5 -115.5t76.5 -50.5q50 0 82 52t32 133l25 874q0 75 -31 127.5t-77 52.5q-47 0 -80.5 -50.5t-34.5 -135.5z " />
<glyph unicode="P" horiz-adv-x="663" d="M55 1567q232 10 281 10q289 0 289 -449q0 -380 -187 -426q-24 -8 -186 -14l20 -629l-163 -10zM227 1382l17 -505q2 0 8 -1.5t10 -1.5q50 0 82 7.5t60 30t40.5 67t12.5 115.5q0 79 -6 130t-18 84t-36 49t-52 21.5t-75 5.5h-22q-13 0 -21 -2z" />
<glyph unicode="Q" d="M63 1208q0 169 75.5 267t209.5 98q126 0 197.5 -98.5t79.5 -278.5q4 -235 8 -438t6 -287.5t2 -85.5q0 -280 -149 -362q45 -73 118 -123l-98 -90q-112 46 -162 180q-261 9 -270 409q-3 151 -5.5 289.5t-4.5 228t-3.5 158t-2.5 100.5t-1 33zM231 1219l17 -873 q7 -88 37.5 -136t76.5 -48q52 0 81.5 53t29.5 129v6l-16 867q-7 84 -39 133t-76 49q-52 0 -81.5 -52.5t-29.5 -127.5z" />
<glyph unicode="R" horiz-adv-x="708" d="M55 1579l244 10q87 0 145.5 -23t99.5 -78t59 -145.5t18 -226.5q0 -116 -31 -201t-92 -122q37 -39 58 -102t26.5 -128.5t12 -140.5t14 -139.5t32 -124t66.5 -95.5l-170 -4q-38 27 -56.5 63.5t-27.5 98.5q-3 20 -7.5 130.5t-13.5 178.5q-17 137 -70 193l-114 -2l24 -633 l-166 -10zM227 1395l17 -484q45 0 69.5 2t55.5 13.5t46.5 33t26.5 63t11 101.5q0 46 -2 80.5t-6.5 63t-11 48t-18 34t-24 23t-31 14t-38.5 7t-48 1.5h-47z" />
<glyph unicode="S" horiz-adv-x="641" d="M51 408l158 2q4 -117 40.5 -174.5t98.5 -57.5q69 0 100 48.5t31 119.5q0 51 -14 93t-62 122q-34 56 -116 159.5t-109 141.5q-106 153 -106 326q0 171 70 267.5t188 96.5q51 0 95 -16t82 -50t59.5 -94.5t21.5 -142.5q0 -22 -4 -84l-166 13q4 29 4 79q0 111 -74 111 q-115 0 -115 -160q0 -65 21.5 -122.5t83.5 -141.5q27 -36 95.5 -122t101.5 -134q104 -149 104 -338q0 -158 -81.5 -265.5t-203.5 -107.5q-133 0 -218 124t-85 307z" />
<glyph unicode="T" horiz-adv-x="630" d="M47 1450v192h571l5 -192h-213v-1006h-166v1006h-197zM104 291h138v65h168v-65h139l-223 -219z" />
<glyph unicode="U" horiz-adv-x="694" d="M104 303l33 1157l166 -8l-31 -1184q-2 -75 26.5 -119.5t86.5 -44.5q107 0 113 166l41 1186l157 -8l-28 -1141q-4 -198 -76.5 -298.5t-206.5 -100.5q-144 0 -212.5 98t-68.5 297z" />
<glyph unicode="V" horiz-adv-x="643" d="M41 1565l160 6l145 -1172l143 1168l162 -13l-223 -1505h-176z" />
<glyph unicode="W" horiz-adv-x="940" d="M12 1632l162 10l117 -1112l106 1039h142l139 -1034l92 1083h154l-176 -1520h-138l-133 1057l-123 -1057l-143 -4z" />
<glyph unicode="X" horiz-adv-x="643" d="M4 1501h172l139 -454l148 501h168l-225 -770l235 -790h-170l-139 501l-150 -505h-168l215 772z" />
<glyph unicode="Y" horiz-adv-x="604" d="M-20 1513l159 11l148 -602l110 620l168 6l-196 -893l16 -628l-166 -4l-14 598z" />
<glyph unicode="Z" horiz-adv-x="604" d="M72 14v219l362 1090h-276l-19 201h471v-205l-368 -1104h350v-201h-520z" />
<glyph unicode="[" horiz-adv-x="419" d="M133 -248v1745h279v-164h-131v-1415h131v-166h-279z" />
<glyph unicode="\" horiz-adv-x="540" d="M-117 1561l113 4l551 -1733l-113 -4z" />
<glyph unicode="]" horiz-adv-x="385" d="M20 1565l273 10l61 -1745l-274 -10l-6 166l131 4l-49 1413l-131 -4z" />
<glyph unicode="^" horiz-adv-x="985" d="M-51 977l366 592l174 10l435 -543l-185 -10l-327 412l-279 -449z" />
<glyph unicode="_" horiz-adv-x="854" d="M0 -348h854v-154h-854v154z" />
<glyph unicode="`" horiz-adv-x="368" d="M59 1839h162l86 -207h-117z" />
<glyph unicode="a" horiz-adv-x="671" d="M31 125l260 1505l225 -6l160 -1569l-168 6l-47 383l-215 7l-53 -332zM272 639l177 -8l-54 682z" />
<glyph unicode="b" horiz-adv-x="694" d="M61 1491q45 1 87 2.5t66.5 2.5t33.5 1q134 0 211.5 -35.5t113.5 -110t43 -204.5q0 -8 1 -23t1 -22q0 -209 -131 -340q175 -123 175 -410q0 -351 -269 -366q-1 0 -30.5 -1.5t-98.5 -4t-151 -5.5zM229 1307l17 -453h76q131 9 131 209q0 7 -1 22t-1 23q-6 114 -42 157.5 t-110 43.5q-6 0 -30 -1t-40 -1zM252 659l16 -487h29q112 7 152 48t40 138v39q0 34 -2 52q-4 49 -10 81.5t-18.5 57t-27.5 38t-43 21.5t-57.5 10t-78.5 2z" />
<glyph unicode="c" horiz-adv-x="663" d="M47 1245q0 166 68.5 263.5t214.5 103.5q55 0 100 -19.5t82.5 -61.5t58.5 -118.5t21 -181.5v-168l-170 -8q2 19 2 71t2 88q-3 213 -107 213t-104 -170v-4q0 -21 6 -190l23 -680q6 -174 112 -174q115 0 115 227q0 13 -12 193l170 4q2 -12 2 -47v-70q0 -487 -273 -487 q-272 0 -284 405z" />
<glyph unicode="d" horiz-adv-x="700" d="M63 1413l259 10q150 0 226 -96.5t83 -302.5l24 -702v-35q0 -113 -18 -185t-63 -116t-110 -62t-169 -22h-76q-63 0 -104 -2zM233 1227l37 -1127l74 2q84 1 113.5 37.5t29.5 128.5v19l-24 743q-4 116 -50.5 156.5t-164.5 40.5h-15z" />
<glyph unicode="e" horiz-adv-x="565" d="M100 117v1517h428v-192h-258v-436h222v-195h-218v-492h289v-202h-463z" />
<glyph unicode="f" horiz-adv-x="538" d="M82 1577l428 10l4 -190l-254 -6v-437h219l6 -188l-221 -6l15 -697h-164z" />
<glyph unicode="g" horiz-adv-x="659" d="M96 264q0 7 1 21.5t1 21.5l19 795q3 162 77.5 263t204.5 101q250 0 250 -358q0 -12 -3.5 -76t-4.5 -121l-158 2q7 51 17 189q0 182 -99 182q-58 0 -86.5 -41t-29.5 -131l-21 -866q0 -180 107 -180q58 0 86.5 42.5t29.5 133.5l5 260h-115l6 166l272 -9l-18 -747h-127 l-8 111q-64 -129 -180 -129q-106 0 -166 95.5t-60 274.5z" />
<glyph unicode="h" horiz-adv-x="692" d="M55 1612l162 6l23 -633l217 6l-21 590l166 6l49 -1472l-164 -4l-24 692l-217 -8l22 -650l-164 -4z" />
<glyph unicode="i" horiz-adv-x="432" d="M-25 164h138v63l168 4v-61h139l-217 -225zM86 1384v129l170 5v-134h-170zM90 1106v174l170 4v-176zM94 1016l172 6v-176l-168 -2zM100 754l168 4l4 -176l-168 -2zM104 489l168 7l7 -177l-168 -2z" />
<glyph unicode="j" horiz-adv-x="696" d="M-25 510l215 229l230 -213l-137 -4l2 -63l-168 -8l-2 63zM117 375l170 6v-47q-2 -10 -2 -29v-18q0 -232 127 -232q104 0 104 150v35q-3 103 -16.5 504t-22.5 706l164 -16q12 -222 41 -1135v-61q0 -363 -281 -363q-101 0 -159 46t-88 153.5t-37 300.5z" />
<glyph unicode="k" horiz-adv-x="702" d="M82 1620l164 6l14 -649l225 612h158l-194 -514q30 -62 50.5 -167t34 -215t31 -223t52.5 -219.5t88 -176.5l-175 -2q-52 72 -81 185t-36.5 214t-23 217.5t-41.5 185.5l-82 -219l13 -544l-166 -5z" />
<glyph unicode="l" horiz-adv-x="569" d="M119 27v1515l155 2v-1329h295v-188h-450z" />
<glyph unicode="m" horiz-adv-x="911" d="M133 49v1467h234l135 -967l162 960h210v-1517l-135 4v1057l-213 -1055h-73l-189 1063v-1012h-131z" />
<glyph unicode="n" horiz-adv-x="729" d="M102 -158v1540h150l278 -1011v970h166v-1472h-155l-275 934v-961h-164z" />
<glyph unicode="o" d="M92 369l6 821q2 173 73.5 270t203.5 103q129 0 204 -95t78 -270v-16l-4 -795q-3 -398 -272 -407q-286 0 -289 389zM260 330q0 -76 34 -127t79 -51q94 0 112 186l2 876q0 76 -32 126.5t-80 50.5q-49 0 -79 -54.5t-30 -132.5z" />
<glyph unicode="p" horiz-adv-x="663" d="M55 1513q82 3 151.5 5.5t100 4t31.5 1.5q289 0 289 -451q0 -375 -187 -428q-27 -9 -186 -12l20 -625l-165 -8zM229 1329l17 -508q37 0 61 2t51 9t43.5 21.5t30.5 38.5t20.5 61t6.5 87q0 164 -31.5 229.5t-110.5 65.5q-29 0 -88 -6z" />
<glyph unicode="q" d="M88 313q0 455 4 828q1 164 79.5 260t207.5 96q43 0 78.5 -10t62.5 -26t47.5 -45t34.5 -57.5t23.5 -74.5t15 -84.5t8.5 -98t3.5 -105.5t0.5 -117q0 -347 -4 -576q-9 -281 -160 -358q36 -68 115 -125l-102 -88q-113 52 -156 186q-258 15 -258 395zM256 274q0 -76 30 -132 t81 -56q45 0 77 50t35 130v6l4 879q0 67 -30.5 120.5t-77.5 53.5q-49 0 -82 -48.5t-33 -129.5z" />
<glyph unicode="r" horiz-adv-x="636" d="M14 1645q115 18 256 18q110 0 176.5 -42t103 -144t42.5 -279q0 -227 -103 -330q69 -63 84 -217l15 -270q24 -158 117 -236l-170 -8q-50 53 -70.5 93t-30.5 111t-12 214q-3 169 -78 244l-115 -6l37 -633l-164 -6zM190 1464l29 -481q43 0 70 3t55.5 15t44 34.5t25.5 63 t10 99.5q-2 93 -11.5 146t-34 80.5t-53.5 34.5t-85 7q-15 0 -31.5 -1t-18.5 -1z" />
<glyph unicode="s" horiz-adv-x="641" d="M6 1298q0 162 69.5 251t190.5 89q48 0 91 -15.5t81 -47.5t60 -90t22 -135q0 -51 -2 -84l-164 4q0 102 -14 144t-61 42q-111 0 -111 -143q0 -75 23.5 -134.5t95.5 -146.5q31 -39 103.5 -120.5t107.5 -125.5q123 -157 123 -331q0 -186 -72 -286.5t-207 -100.5 q-129 0 -215.5 117.5t-95.5 293.5l157 13q10 -112 47.5 -168t94.5 -56q131 0 131 158q0 56 -16 99.5t-72 127.5q-36 53 -124 150t-118 137q-125 164 -125 358z" />
<glyph unicode="t" horiz-adv-x="587" d="M-8 1577l569 16l8 -184l-209 -8l35 -1008l-164 -8l-34 1006l-199 -5zM98 229l135 4l-2 64l166 6l4 -63l138 4l-213 -230z" />
<glyph unicode="u" horiz-adv-x="694" d="M100 434l4 1161h170l-6 -1189q0 -65 31.5 -113.5t79.5 -48.5q113 0 113 168l8 1185l168 -4l-9 -1140q-2 -200 -70.5 -303t-201.5 -103q-287 0 -287 387z" />
<glyph unicode="v" horiz-adv-x="643" d="M8 1491l156 10l174 -1169l121 1165l157 4l-184 -1524h-178z" />
<glyph unicode="w" horiz-adv-x="940" d="M12 1544h154l125 -1108l106 1047h142l139 -1043l92 1088h154l-176 -1518h-138l-133 1069l-123 -1071h-137z" />
<glyph unicode="x" horiz-adv-x="643" d="M-10 1608l172 4l143 -455l144 508h165l-217 -772l246 -791h-170l-147 502l-142 -506l-168 -6l207 776z" />
<glyph unicode="y" horiz-adv-x="604" d="M-20 1587l163 10l144 -600l110 621l168 6l-196 -893l16 -625l-166 -6l-14 600z" />
<glyph unicode="z" horiz-adv-x="604" d="M63 -37v219l326 1098l-276 -6l-27 205l477 10v-205l-330 -1112l359 8v-217h-529z" />
<glyph unicode="{" horiz-adv-x="735" d="M117 590q122 4 170.5 61t48.5 187q0 44 -12.5 218.5t-12.5 211.5q0 103 26.5 156.5t96 80t209.5 35.5l10 -158q-61 -3 -94.5 -12t-55.5 -34.5t-29 -66.5t-7 -114q0 -33 10 -181t10 -179q0 -112 -44.5 -173t-155.5 -104q40 -9 71.5 -23t55.5 -27t42 -39t30.5 -43t21.5 -57 t13.5 -62.5t8 -77.5t4 -84.5t2.5 -99.5q1 -29 1 -44q6 -70 15.5 -116.5t21.5 -75t31.5 -43t40.5 -19t54 -4.5q10 0 56 4l6 -156q-86 -4 -98 -4q-73 0 -117.5 13t-78 50.5t-49.5 103t-24 173.5l-18 265q-12 165 -59.5 223.5t-161.5 58.5h-29z" />
<glyph unicode="|" horiz-adv-x="444" d="M119 1659l125 6l73 -2161l-122 -4z" />
<glyph unicode="}" horiz-adv-x="727" d="M143 -338h33q39 0 61.5 4.5t45.5 20t35 47t19 84.5t7 133v41q0 4 1 17t1 22q0 14 -2 51t-2 49v35q0 111 21 175.5t66 99.5t132 61q-130 37 -174.5 103.5t-44.5 232.5v36q0 32 2 50v88q0 62 -1.5 107t-8 80.5t-12 58.5t-20 39.5t-26 24.5t-36 12.5t-43 5.5t-54.5 1v158h33 q63 0 104.5 -4.5t79.5 -18.5t60.5 -38.5t39 -65t23 -96.5t6.5 -135v-267q0 -170 51.5 -231t186.5 -61v-158q-90 0 -140 -25.5t-74 -89t-24 -180.5v-266q0 -80 -6 -135.5t-22.5 -95.5t-38 -64t-60 -37.5t-81.5 -18t-109 -4.5h-29v154z" />
<glyph unicode="~" horiz-adv-x="772" d="M49 508v176q47 53 121 53q42 0 187.5 -45t187.5 -45q96 0 166 119v-182q-60 -72 -146 -72q-47 0 -187.5 47t-182.5 47q-88 0 -146 -98z" />
<glyph unicode="&#xa1;" horiz-adv-x="415" d="M-35 1300l215 230l230 -211l-138 -6l2 -66l-168 -4l-2 64zM111 1155l168 4l38 -1151l-167 -8z" />
<glyph unicode="&#xa2;" horiz-adv-x="663" d="M43 1067q0 292 195 352l-7 178l125 7l6 -174q102 -12 164 -102t62 -275v-168l-156 -6q0 126 -14 240.5t-49 131.5l30 -958q66 48 66 217q0 82 -10 199l155 8q2 -12 2 -117q0 -424 -206 -479l12 -289l-123 -4l-12 289q-219 41 -228 401zM199 1087q0 -77 2 -198l14 -434 q3 -126 61 -166l-32 954q-45 -39 -45 -156z" />
<glyph unicode="&#xa3;" horiz-adv-x="663" d="M27 82v192h39l-7 971q-2 169 72.5 265t212.5 96q260 0 260 -383v-31q0 -31 -2 -51v-84l-170 -4q0 15 3 76.5t3 80.5q0 215 -104 215q-114 0 -111 -168l4 -395h285v-131h-281v-461h375l8 -188h-587z" />
<glyph unicode="&#xa5;" horiz-adv-x="604" d="M-20 1513h165l142 -591l110 620l168 6l-196 -893v-55l178 4v-129l-172 -4v-111l164 7v-125l-162 -6l8 -209l-170 -4v206h-162v127h154v109h-144v125l142 4v27z" />
<glyph unicode="&#xa6;" horiz-adv-x="460" d="M127 1659l125 6l27 -795l-125 -12zM174 303l123 10l29 -809l-123 -4z" />
<glyph unicode="&#xa8;" horiz-adv-x="600" d="M76 1821l155 4l9 -209l-158 -4zM377 1835l155 4l9 -209l-158 -4z" />
<glyph unicode="&#xa9;" horiz-adv-x="1312" d="M72 684q0 118 4.5 204.5t18.5 159.5t32.5 121.5t53 87t74.5 60t102.5 35t130 18t163.5 4.5q82 0 138.5 -2t114 -9t94 -17.5t73.5 -31.5t58 -46t41 -65.5t29.5 -87t17 -113t10 -140t2.5 -172.5q0 -125 -3.5 -211.5t-16.5 -163.5t-30 -124.5t-52 -87t-74.5 -59t-105 -33.5 t-135.5 -17.5t-175 -3.5q-125 0 -206 9t-149 38t-105 74t-62.5 126.5t-34 185.5t-8.5 261zM207 682q0 -109 0.5 -158.5t7 -121t16.5 -98.5t32.5 -66.5t52.5 -50.5t79.5 -27t109 -18.5t146.5 -2.5q68 0 117.5 2t94 10.5t75 16t56 29t41 38t28 55t18 68.5t9 89t4 105.5 t0.5 129.5q0 103 -1 153t-7 119.5t-16.5 98.5t-33 69t-53 54t-78.5 30.5t-109 20.5t-145 4q-117 0 -187 -5t-124 -34t-77.5 -53.5t-38 -104.5t-16 -143t-1.5 -209zM485 682q0 99 12 163t36.5 94t51 40t66.5 10q87 0 119 -16v-137q-49 20 -98 20q-18 0 -27.5 -9.5 t-16.5 -48.5t-7 -116q0 -74 7.5 -112.5t17 -47t26.5 -8.5q67 0 98 16v-141q-62 -16 -104 -16q-34 0 -55.5 4t-48 21t-41.5 49t-25.5 91.5t-10.5 143.5z" />
<glyph unicode="&#xaa;" horiz-adv-x="430" d="M35 457l133 831h141l103 -862h-119l-25 203l-98 4l-25 -176h-110zM190 758l66 -2l-25 254z" />
<glyph unicode="&#xab;" horiz-adv-x="831" d="M55 666v147l361 256v-209l-185 -119l185 -120v-201zM422 666v147l360 256v-209l-184 -119l184 -120v-201z" />
<glyph unicode="&#xad;" horiz-adv-x="462" d="M76 508v131h383v-131h-383z" />
<glyph unicode="&#xae;" horiz-adv-x="937" d="M72 907q0 81 3.5 140.5t13 109.5t22 82.5t36.5 58t50.5 39.5t69.5 23t87.5 11.5t110.5 2.5q71 0 118.5 -2.5t91.5 -12t70 -22.5t49 -40t34 -58t19.5 -82.5t10.5 -108t2 -139.5q0 -84 -2.5 -141t-10 -109.5t-19 -84.5t-34 -60t-49 -42t-69.5 -24t-91 -13t-118 -3 q-89 0 -144 5t-103.5 23.5t-73.5 48.5t-43.5 86t-24.5 128.5t-6 183.5zM168 903q0 -72 1 -112.5t6 -85.5t11.5 -66t23.5 -44.5t35.5 -32t53 -16.5t71.5 -9.5t95 -1.5q56 0 94.5 2t71 11.5t52.5 19t35.5 33.5t23 45.5t12 65.5t5.5 83.5t1 107.5q0 66 -1 104t-5.5 82t-12 66.5 t-23 48t-36 36.5t-52 21.5t-71.5 13.5t-94 3q-59 0 -98 -1.5t-73 -11.5t-53 -17t-35 -34t-22 -45.5t-10.5 -68t-5 -85t-0.5 -112.5zM315 639v555h162q137 0 137 -158q0 -70 -19 -103.5t-58 -47.5q13 -13 37 -120t42 -126h-102q-16 16 -37 116.5t-41 118.5h-22v-235h-99z M414 975h63q47 0 47 61q0 58 -47 58h-63v-119z" />
<glyph unicode="&#xaf;" horiz-adv-x="489" d="M63 1733v90h361v-90h-361z" />
<glyph unicode="&#xb0;" horiz-adv-x="653" d="M63 1085q0 127 77 218.5t182 91.5q122 0 194 -87t72 -223q0 -129 -78.5 -221t-187.5 -92q-105 0 -182 92.5t-77 220.5zM219 1092q0 -61 35.5 -108.5t75.5 -47.5q39 0 68.5 46.5t29.5 109.5q0 60 -30 106.5t-68 46.5q-39 0 -75 -47.5t-36 -105.5z" />
<glyph unicode="&#xb1;" horiz-adv-x="503" d="M16 47v146h473v-146h-473zM31 549v145h178v256h121v-256h174v-145h-174v-258h-121v258h-178z" />
<glyph unicode="&#xb2;" horiz-adv-x="405" d="M53 911q79 150 140 305.5t61 245.5q0 66 -47 66q-27 0 -38 -33t-11 -109v-30h-105v20q0 136 38 202.5t120 66.5q69 0 107 -52.5t38 -148.5q0 -116 -65 -281q-33 -87 -117 -245l186 4v-127l-305 -9z" />
<glyph unicode="&#xb3;" horiz-adv-x="405" d="M39 1323q0 94 39.5 153.5t105.5 59.5q144 0 144 -262q0 -109 -52 -164q39 -29 57.5 -80.5t18.5 -142.5q0 -234 -145 -234q-143 0 -158 283l107 4q3 -162 49 -162q43 0 43 94q0 80 -9.5 117.5t-28.5 48.5t-60 11l-7 102q45 5 64.5 32t19.5 99q0 125 -45 125q-39 0 -39 -82 q0 -43 4 -63l-104 -7q-4 28 -4 68z" />
<glyph unicode="&#xb4;" horiz-adv-x="331" d="M43 1638l88 209h166l-129 -209h-125z" />
<glyph unicode="&#xb7;" horiz-adv-x="385" d="M53 735q0 57 42 98t98 41t97.5 -41t41.5 -98q0 -55 -41.5 -96t-97.5 -41t-98 41t-42 96z" />
<glyph unicode="&#xb8;" horiz-adv-x="358" d="M86 -18l156 2l2 -140l-80 -188h-49l28 178h-57v148z" />
<glyph unicode="&#xb9;" horiz-adv-x="258" d="M4 1497q75 35 113 107l78 2l18 -836l-111 -4l-14 645l-82 -4z" />
<glyph unicode="&#xba;" horiz-adv-x="436" d="M76 639l12 442q3 98 46.5 152.5t119.5 54.5q73 0 115.5 -53.5t42.5 -140.5v-25l-11 -426q-3 -225 -165 -225q-82 0 -121 55t-39 166zM188 608q-1 -35 13.5 -56.5t34.5 -21.5q44 0 47 88l14 472q0 84 -45 84q-48 0 -51 -89z" />
<glyph unicode="&#xbb;" horiz-adv-x="847" d="M68 416v211l186 118l-186 119v203l360 -246v-149zM434 416v211l184 118l-184 119v203l361 -246v-149z" />
<glyph unicode="&#xbc;" horiz-adv-x="989" d="M100 1497q75 35 113 107l78 2l18 -836l-110 -4l-15 645l-82 -4zM164 -16l545 1515h122l-546 -1515h-121zM633 375l153 526l109 4l16 -520l74 2l4 -115l-74 -2l7 -198l-105 -9l-8 205l-172 -8zM735 379l70 4l-8 227z" />
<glyph unicode="&#xbd;" horiz-adv-x="962" d="M100 1497q75 35 113 107l78 2l18 -836l-110 -4l-15 645l-82 -4zM164 -16l545 1515h122l-546 -1515h-121zM655 141q79 150 140 305.5t61 245.5q0 66 -47 66q-27 0 -38 -33t-11 -109v-30h-105v20q0 135 38 201.5t120 66.5q69 0 107 -52t38 -148q0 -116 -65 -281 q-35 -90 -117 -246l187 5v-127l-306 -9z" />
<glyph unicode="&#xbe;" horiz-adv-x="1030" d="M100 1298q0 94 40 153.5t106 59.5q143 0 143 -262q0 -110 -51 -164q39 -29 57.5 -80.5t18.5 -142.5q0 -233 -146 -233q-142 0 -157 282l106 4q3 -161 49 -161q43 0 43 94q0 80 -9.5 117.5t-28 48t-60.5 10.5l-6 102q45 5 64.5 32t19.5 99q0 125 -45 125q-39 0 -39 -82 q0 -43 4 -63l-105 -6q-4 28 -4 67zM225 -16l545 1515h123l-547 -1515h-121zM674 371l153 526l109 4l16 -520l74 2l4 -115l-74 -2l7 -198l-105 -9l-8 205l-172 -8zM776 375l70 4l-8 227z" />
<glyph unicode="&#xbf;" horiz-adv-x="516" d="M-10 1341l207 236l235 -209l-137 -8l4 -64l-168 -10l-4 64zM12 268q0 92 47 219q97 277 97 541q0 38 -4 164l143 6q2 -14 2 -51v-57q0 -285 -41 -469q-98 -271 -98 -351q0 -46 24.5 -83t63.5 -37q72 0 121 167l129 -59q-58 -285 -248 -285q-107 0 -171.5 80t-64.5 215z " />
<glyph unicode="&#xc0;" horiz-adv-x="671" d="M29 125l239 1505h228l180 -1562h-172l-47 381l-217 8l-50 -332h-161zM211 1892h162l86 -206h-117zM266 641l174 -4l-63 682z" />
<glyph unicode="&#xc1;" horiz-adv-x="671" d="M29 125l239 1505h228l180 -1562h-172l-47 381l-217 8l-50 -332h-161zM266 641l174 -4l-63 682zM301 1702l88 209h166l-129 -209h-125z" />
<glyph unicode="&#xc2;" horiz-adv-x="671" d="M29 125l239 1505h228l180 -1562h-172l-47 381l-217 8l-50 -332h-161zM125 1677l186 269l138 6l198 -250l-149 -8l-111 176l-106 -187zM266 641l174 -4l-63 682z" />
<glyph unicode="&#xc3;" horiz-adv-x="671" d="M29 125l239 1505h228l180 -1562h-172l-47 381l-217 8l-50 -332h-161zM221 1690v143q21 43 62 43q21 0 94 -37t94 -37q49 0 84 96v-147q-26 -57 -74 -57q-23 0 -94 37.5t-92 37.5q-47 0 -74 -79zM266 641l174 -4l-63 682z" />
<glyph unicode="&#xc4;" horiz-adv-x="671" d="M29 125l239 1505h228l180 -1562h-172l-47 381l-217 8l-50 -332h-161zM180 1874l156 4l8 -209l-158 -4zM266 641l174 -4l-63 682zM481 1888l156 4l8 -209l-158 -4z" />
<glyph unicode="&#xc5;" horiz-adv-x="671" d="M29 125l239 1505h228l180 -1562h-172l-47 381l-217 8l-50 -332h-161zM266 641l174 -4l-63 682zM270 1786q0 63 35 104t90 41q54 0 90.5 -42.5t36.5 -102.5q0 -56 -36.5 -93.5t-90.5 -37.5q-55 0 -90 37.5t-35 93.5zM332 1790q0 -31 18.5 -51.5t44.5 -20.5t43 20.5 t17 51.5q0 30 -17 51t-43 21t-44.5 -21.5t-18.5 -50.5z" />
<glyph unicode="&#xc6;" horiz-adv-x="974" d="M31 125l260 1509h645v-192h-260v-608h221v-195h-215v-320h285l4 -200h-467l-12 510h-199l-100 -510zM324 819h165v621l-63 -2z" />
<glyph unicode="&#xc7;" horiz-adv-x="663" d="M59 1245q0 170 73.5 265.5t211.5 95.5q260 0 260 -383q0 -123 -4 -166l-168 -4q6 105 6 157q0 215 -104 215q-111 0 -111 -168l27 -876q5 -176 112 -176q113 0 113 239q0 132 -6 181l164 4q4 -54 4 -119q0 -485 -279 -485q-133 0 -204.5 102t-75.5 305zM297 -18l156 2 l2 -140l-80 -188h-49l28 178h-57v148z" />
<glyph unicode="&#xc8;" horiz-adv-x="565" d="M55 1567l430 18l4 -194l-260 -9l15 -436l221 6l6 -192l-219 -6l16 -496l285 10l6 -200l-448 -15zM113 1839h161l86 -207h-116z" />
<glyph unicode="&#xc9;" horiz-adv-x="565" d="M55 1567l430 18l4 -194l-260 -9l15 -436l221 6l6 -192l-219 -6l16 -496l285 10l6 -200l-448 -15zM195 1638l88 209h166l-130 -209h-124z" />
<glyph unicode="&#xca;" horiz-adv-x="565" d="M6 1651l187 268l137 6l198 -250l-149 -8l-111 176l-106 -186zM55 1567l430 18l4 -194l-260 -9l15 -436l221 6l6 -192l-219 -6l16 -496l285 10l6 -200l-448 -15z" />
<glyph unicode="&#xcb;" horiz-adv-x="565" d="M55 1567l430 18l4 -194l-260 -9l15 -436l221 6l6 -192l-219 -6l16 -496l285 10l6 -200l-448 -15zM55 1851l156 4l8 -208l-158 -5zM356 1866l156 4l8 -209l-158 -4z" />
<glyph unicode="&#xcc;" horiz-adv-x="432" d="M-25 164h138v63l168 4v-61h139l-217 -225zM-18 1849h161l86 -207h-116zM86 1384v129l170 5v-134h-170zM90 1106v174l170 4v-176zM94 1016l172 6v-176l-168 -2zM100 754l168 4l4 -176l-168 -2zM104 489l168 7l7 -177l-168 -2z" />
<glyph unicode="&#xcd;" horiz-adv-x="432" d="M-25 164h138v63l168 4v-61h139l-217 -225zM86 1384v129l170 5v-134h-170zM90 1106v174l170 4v-176zM94 1016l172 6v-176l-168 -2zM100 754l168 4l4 -176l-168 -2zM104 489l168 7l7 -177l-168 -2zM104 1653l89 209h165l-129 -209h-125z" />
<glyph unicode="&#xce;" horiz-adv-x="432" d="M-74 1636l187 269l137 6l199 -250l-150 -8l-111 176l-106 -187zM-25 164h138v63l168 4v-61h139l-217 -225zM86 1384v129l170 5v-134h-170zM90 1106v174l170 4v-176zM94 1016l172 6v-176l-168 -2zM100 754l168 4l4 -176l-168 -2zM104 489l168 7l7 -177l-168 -2z" />
<glyph unicode="&#xcf;" horiz-adv-x="432" d="M-37 1821l156 4l8 -209l-158 -4zM-25 164h138v63l168 4v-61h139l-217 -225zM86 1384v129l170 5v-134h-170zM90 1106v174l170 4v-176zM94 1016l172 6v-176l-168 -2zM100 754l168 4l4 -176l-168 -2zM104 489l168 7l7 -177l-168 -2zM264 1835l156 4l8 -209l-158 -4z" />
<glyph unicode="&#xd0;" horiz-adv-x="700" d="M-10 639v113h110v714l258 4q296 0 299 -407q1 -198 2.5 -368t3 -253t1.5 -84q0 -122 -18.5 -200t-64 -125t-113.5 -65.5t-175 -18.5h-37q-33 0 -53 2h-97v688h-116zM268 752h170v-113h-166v-489h74q85 0 118 38t32 142l-9 745q-1 116 -45 157.5t-163 41.5h-11v-522z" />
<glyph unicode="&#xd1;" horiz-adv-x="729" d="M111 -74l41 1534h147l250 -1020l29 969l153 -6l-39 -1471l-155 5l-246 952l-6 -2l-25 -965zM293 1552v144q21 43 61 43q20 0 94 -37t95 -37q49 0 84 96v-147q-27 -58 -74 -58q-23 0 -94 38t-92 38q-47 0 -74 -80z" />
<glyph unicode="&#xd2;" d="M100 444l23 822q5 173 80 269.5t207 96.5q126 0 199 -95.5t73 -248.5v-45l-18 -792q-4 -198 -77.5 -299t-209.5 -101q-143 0 -210 97t-67 296zM236 1882h161l86 -207h-116zM268 387q0 -65 30.5 -115.5t76.5 -50.5q50 0 82 52t32 133l25 874q0 75 -31 127.5t-77 52.5 q-47 0 -80.5 -50.5t-34.5 -135.5z" />
<glyph unicode="&#xd3;" d="M100 444l23 822q5 173 80 269.5t207 96.5q126 0 199 -95.5t73 -248.5v-45l-18 -792q-4 -198 -77.5 -299t-209.5 -101q-143 0 -210 97t-67 296zM268 387q0 -65 30.5 -115.5t76.5 -50.5q50 0 82 52t32 133l25 874q0 75 -31 127.5t-77 52.5q-47 0 -80.5 -50.5t-34.5 -135.5z M317 1681l89 209h165l-129 -209h-125z" />
<glyph unicode="&#xd4;" d="M100 444l23 822q5 173 80 269.5t207 96.5q126 0 199 -95.5t73 -248.5v-45l-18 -792q-4 -198 -77.5 -299t-209.5 -101q-143 0 -210 97t-67 296zM160 1669l186 268l137 7l199 -250l-150 -8l-110 176l-107 -187zM268 387q0 -65 30.5 -115.5t76.5 -50.5q50 0 82 52t32 133 l25 874q0 75 -31 127.5t-77 52.5q-47 0 -80.5 -50.5t-34.5 -135.5z" />
<glyph unicode="&#xd5;" d="M100 444l23 822q5 173 80 269.5t207 96.5q126 0 199 -95.5t73 -248.5v-45l-18 -792q-4 -198 -77.5 -299t-209.5 -101q-143 0 -210 97t-67 296zM250 1669v143q21 43 61 43q21 0 95 -36.5t94 -36.5q49 0 84 96v-147q-27 -58 -74 -58q-23 0 -94 38t-92 38q-47 0 -74 -80z M268 387q0 -65 30.5 -115.5t76.5 -50.5q50 0 82 52t32 133l25 874q0 75 -31 127.5t-77 52.5q-47 0 -80.5 -50.5t-34.5 -135.5z" />
<glyph unicode="&#xd6;" d="M100 444l23 822q5 173 80 269.5t207 96.5q126 0 199 -95.5t73 -248.5v-45l-18 -792q-4 -198 -77.5 -299t-209.5 -101q-143 0 -210 97t-67 296zM186 1851l156 4l8 -208l-157 -5zM268 387q0 -65 30.5 -115.5t76.5 -50.5q50 0 82 52t32 133l25 874q0 75 -31 127.5t-77 52.5 q-47 0 -80.5 -50.5t-34.5 -135.5zM487 1866l156 4l8 -209l-157 -4z" />
<glyph unicode="&#xd7;" horiz-adv-x="546" d="M47 860l80 96l160 -184l127 152l86 -101l-129 -151l159 -189l-81 -94l-160 186l-129 -151l-84 100l129 152z" />
<glyph unicode="&#xd8;" d="M39 12l90 207q-31 79 -31 187q0 6 1 18.5t1 19.5l23 822q5 173 80 269.5t207 96.5q105 0 170 -65l43 125l112 -56l-80 -190q29 -108 27 -184l-18 -811q-12 -400 -287 -400q-107 0 -172 53l-58 -145zM272 651l244 713q-4 53 -32.5 74.5t-77.5 21.5q-46 0 -79 -50.5 t-36 -135.5zM279 317q6 -48 32 -72t64 -24q50 0 82 52t32 133l19 593z" />
<glyph unicode="&#xd9;" horiz-adv-x="694" d="M104 303l33 1157l166 -8l-31 -1184q-2 -75 26.5 -119.5t86.5 -44.5q107 0 113 166l41 1186l157 -8l-28 -1141q-4 -198 -76.5 -298.5t-206.5 -100.5q-144 0 -212.5 98t-68.5 297zM254 1767h162l86 -206h-117z" />
<glyph unicode="&#xda;" horiz-adv-x="694" d="M104 303l33 1157l166 -8l-31 -1184q-2 -75 26.5 -119.5t86.5 -44.5q107 0 113 166l41 1186l157 -8l-28 -1141q-4 -198 -76.5 -298.5t-206.5 -100.5q-144 0 -212.5 98t-68.5 297zM311 1567l88 209h166l-129 -209h-125z" />
<glyph unicode="&#xdb;" horiz-adv-x="694" d="M104 303l33 1157l166 -8l-31 -1184q-2 -75 26.5 -119.5t86.5 -44.5q107 0 113 166l41 1186l157 -8l-28 -1141q-4 -198 -76.5 -298.5t-206.5 -100.5q-144 0 -212.5 98t-68.5 297zM158 1577l186 268l137 6l199 -249l-150 -9l-110 176l-107 -186z" />
<glyph unicode="&#xdc;" horiz-adv-x="694" d="M104 303l33 1157l166 -8l-31 -1184q-2 -75 26.5 -119.5t86.5 -44.5q107 0 113 166l41 1186l157 -8l-28 -1141q-4 -198 -76.5 -298.5t-206.5 -100.5q-144 0 -212.5 98t-68.5 297zM195 1761l155 4l8 -209l-157 -4zM496 1776l155 4l8 -209l-157 -4z" />
<glyph unicode="&#xdd;" horiz-adv-x="604" d="M-20 1513l159 11l148 -602l110 620l168 6l-196 -893l16 -628l-166 -4l-14 598zM176 1626l88 209h166l-129 -209h-125z" />
<glyph unicode="&#xde;" horiz-adv-x="663" d="M55 1567l162 6l10 -273h121q289 0 289 -446q0 -382 -186 -428q-21 -5 -187 -14l8 -353l-161 -28zM240 1106l16 -504q3 0 9 -1t9 -1q51 0 82 7t58.5 29t40 67t12.5 116q-2 68 -5 111.5t-12 78t-20 52t-33 29.5t-47.5 15t-66.5 3h-23q-12 0 -20 -2z" />
<glyph unicode="&#xdf;" horiz-adv-x="1282" d="M51 399l158 2q9 -231 139 -231q69 0 100 48.5t31 119.5q0 51 -14 93t-62 122q-34 56 -116 159.5t-109 141.5q-106 153 -106 326q0 171 70 267.5t188 96.5q51 0 95 -16t82 -50t59.5 -94.5t21.5 -142.5q0 -22 -4 -84l-166 12q4 29 4 80q0 111 -74 111q-115 0 -115 -160 q0 -65 21.5 -122.5t83.5 -141.5q27 -36 95.5 -122t101.5 -134q104 -149 104 -338q0 -158 -81.5 -265.5t-203.5 -107.5q-133 0 -218 123.5t-85 306.5zM647 1274q0 162 69.5 251t190.5 89q48 0 91 -15.5t81 -48t60 -90.5t22 -135q0 -51 -2 -84l-164 4q0 52 -2.5 83t-10 56.5 t-23 36.5t-39.5 11q-111 0 -111 -144q0 -74 23.5 -133.5t95.5 -146.5q31 -39 103.5 -120.5t107.5 -125.5q123 -157 123 -332q0 -186 -72 -286.5t-207 -100.5q-128 0 -215 118t-96 294l157 12q10 -112 47.5 -167.5t94.5 -55.5q131 0 131 157q0 56 -16 100t-72 128 q-36 52 -123.5 149t-118.5 137q-125 164 -125 359z" />
<glyph unicode="&#xe0;" horiz-adv-x="671" d="M31 125l260 1505l225 -6l160 -1569l-168 6l-47 383l-215 7l-53 -332zM209 1868h162l86 -207h-117zM272 639l177 -8l-54 682z" />
<glyph unicode="&#xe1;" horiz-adv-x="671" d="M31 125l260 1505l225 -6l160 -1569l-168 6l-47 383l-215 7l-53 -332zM272 639l177 -8l-54 682zM309 1679l88 209h166l-129 -209h-125z" />
<glyph unicode="&#xe2;" horiz-adv-x="671" d="M31 125l260 1505l225 -6l160 -1569l-168 6l-47 383l-215 7l-53 -332zM135 1667l187 268l137 7l198 -250l-149 -9l-111 177l-106 -187zM272 639l177 -8l-54 682z" />
<glyph unicode="&#xe3;" horiz-adv-x="671" d="M31 125l260 1505l225 -6l160 -1569l-168 6l-47 383l-215 7l-53 -332zM217 1675v144q21 43 62 43q21 0 94 -37t94 -37q49 0 84 96v-147q-27 -58 -74 -58q-23 0 -94 38t-92 38q-47 0 -74 -80zM272 639l177 -8l-54 682z" />
<glyph unicode="&#xe4;" horiz-adv-x="671" d="M31 125l260 1505l225 -6l160 -1569l-168 6l-47 383l-215 7l-53 -332zM180 1851l156 4l8 -208l-158 -5zM272 639l177 -8l-54 682zM481 1866l156 4l8 -209l-158 -4z" />
<glyph unicode="&#xe5;" horiz-adv-x="671" d="M31 125l260 1505l225 -6l160 -1569l-168 6l-47 383l-215 7l-53 -332zM272 639l177 -8l-54 682zM299 1784q0 63 35 104t90 41q54 0 90.5 -42.5t36.5 -102.5q0 -56 -36.5 -93.5t-90.5 -37.5q-55 0 -90 37.5t-35 93.5zM360 1788q0 -30 18.5 -51t45.5 -21q26 0 42.5 20.5 t16.5 51.5q0 30 -16.5 51t-42.5 21t-45 -21.5t-19 -50.5z" />
<glyph unicode="&#xe6;" horiz-adv-x="974" d="M31 125l260 1509h645v-192h-260v-608h221v-195h-215v-320h285l4 -200h-467l-12 510h-199l-100 -510zM324 819h165v621l-63 -2z" />
<glyph unicode="&#xe7;" horiz-adv-x="663" d="M59 1245q0 170 73.5 265.5t211.5 95.5q260 0 260 -383q0 -123 -4 -166l-168 -4q6 105 6 157q0 215 -104 215q-111 0 -111 -168l27 -876q5 -176 112 -176q113 0 113 239q0 132 -6 181l164 4q4 -54 4 -119q0 -485 -279 -485q-133 0 -204.5 102t-75.5 305zM297 -18l156 2 l2 -140l-80 -188h-49l28 178h-57v148z" />
<glyph unicode="&#xe8;" horiz-adv-x="565" d="M100 117v1517h428v-192h-258v-436h222v-195h-218v-492h289v-202h-463zM150 1876h161l86 -207h-116z" />
<glyph unicode="&#xe9;" horiz-adv-x="565" d="M100 117v1517h428v-192h-258v-436h222v-195h-218v-492h289v-202h-463zM111 1638l88 209h166l-129 -209h-125z" />
<glyph unicode="&#xea;" horiz-adv-x="565" d="M57 1677l187 269l137 6l199 -250l-150 -8l-111 176l-106 -187zM100 117v1517h428v-192h-258v-436h222v-195h-218v-492h289v-202h-463z" />
<glyph unicode="&#xeb;" horiz-adv-x="565" d="M86 1894l156 4l8 -208l-158 -4zM100 117v1517h428v-192h-258v-436h222v-195h-218v-492h289v-202h-463zM387 1909l156 4l8 -209l-158 -4z" />
<glyph unicode="&#xec;" horiz-adv-x="432" d="M-6 1874h162l86 -207h-117zM92 2v1585h193v-1585h-193z" />
<glyph unicode="&#xed;" horiz-adv-x="432" d="M92 2v1585h193v-1585h-193zM102 1669l88 209h166l-129 -209h-125z" />
<glyph unicode="&#xee;" horiz-adv-x="432" d="M-84 1661l186 268l138 6l198 -249l-149 -9l-111 176l-106 -186zM92 2v1585h193v-1585h-193z" />
<glyph unicode="&#xef;" horiz-adv-x="432" d="M-47 1851l156 4l8 -208l-158 -5zM92 2v1585h193v-1585h-193zM254 1866l156 4l8 -209l-158 -4z" />
<glyph unicode="&#xf0;" horiz-adv-x="700" d="M-10 639v113h110v714l258 4q296 0 299 -407q1 -198 2.5 -368t3 -253t1.5 -84q0 -122 -18.5 -200t-64 -125t-113.5 -65.5t-175 -18.5h-37q-33 0 -53 2h-97v688h-116zM268 752h170v-113h-166v-489h74q85 0 118 38t32 142l-9 745q-1 116 -45 157.5t-163 41.5h-11v-522z" />
<glyph unicode="&#xf1;" horiz-adv-x="729" d="M102 -158v1540h150l278 -1011v970h166v-1472h-155l-275 934v-961h-164zM229 1468v144q21 43 62 43q21 0 94 -37t94 -37q49 0 84 96v-147q-26 -57 -74 -57q-23 0 -94 37.5t-92 37.5q-47 0 -74 -80z" />
<glyph unicode="&#xf2;" d="M92 369l6 821q2 173 73.5 270t203.5 103q129 0 204 -95t78 -270v-16l-4 -795q-3 -398 -272 -407q-286 0 -289 389zM172 1839h162l86 -207h-117zM260 330q0 -76 34 -127t79 -51q94 0 112 186l2 876q0 76 -32 126.5t-80 50.5q-49 0 -79 -54.5t-30 -132.5z" />
<glyph unicode="&#xf3;" d="M92 369l6 821q2 173 73.5 270t203.5 103q129 0 204 -95t78 -270v-16l-4 -795q-3 -398 -272 -407q-286 0 -289 389zM260 330q0 -76 34 -127t79 -51q94 0 112 186l2 876q0 76 -32 126.5t-80 50.5q-49 0 -79 -54.5t-30 -132.5zM266 1638l88 209h166l-129 -209h-125z" />
<glyph unicode="&#xf4;" d="M92 369l6 821q2 173 73.5 270t203.5 103q129 0 204 -95t78 -270v-16l-4 -795q-3 -398 -272 -407q-286 0 -289 389zM102 1651l187 268l137 6l199 -250l-150 -8l-110 176l-107 -186zM260 330q0 -76 34 -127t79 -51q94 0 112 186l2 876q0 76 -32 126.5t-80 50.5 q-49 0 -79 -54.5t-30 -132.5z" />
<glyph unicode="&#xf5;" d="M92 369l6 821q2 173 73.5 270t203.5 103q129 0 204 -95t78 -270v-16l-4 -795q-3 -398 -272 -407q-286 0 -289 389zM205 1636v144q21 43 61 43q20 0 94 -37t95 -37q49 0 84 96v-147q-27 -58 -74 -58q-23 0 -94 38t-92 38q-47 0 -74 -80zM260 330q0 -76 34 -127t79 -51 q94 0 112 186l2 876q0 76 -32 126.5t-80 50.5q-49 0 -79 -54.5t-30 -132.5z" />
<glyph unicode="&#xf6;" d="M92 369l6 821q2 173 73.5 270t203.5 103q129 0 204 -95t78 -270v-16l-4 -795q-3 -398 -272 -407q-286 0 -289 389zM164 1806l155 4l9 -208l-158 -5zM260 330q0 -76 34 -127t79 -51q94 0 112 186l2 876q0 76 -32 126.5t-80 50.5q-49 0 -79 -54.5t-30 -132.5zM465 1821 l156 4l8 -209l-158 -4z" />
<glyph unicode="&#xf7;" horiz-adv-x="503" d="M31 549v145h473v-145h-473zM182 170v213h158v-209zM190 862v213h158v-209z" />
<glyph unicode="&#xf8;" d="M39 12l90 207q-31 79 -31 187q0 6 1 18.5t1 19.5l23 822q5 173 80 269.5t207 96.5q105 0 170 -65l43 125l112 -56l-80 -190q29 -108 27 -184l-18 -811q-12 -400 -287 -400q-107 0 -172 53l-58 -145zM272 651l244 713q-4 53 -32.5 74.5t-77.5 21.5q-46 0 -79 -50.5 t-36 -135.5zM279 317q6 -48 32 -72t64 -24q50 0 82 52t32 133l19 593z" />
<glyph unicode="&#xf9;" horiz-adv-x="694" d="M100 434l4 1161h170l-6 -1189q0 -65 31.5 -113.5t79.5 -48.5q113 0 113 168l8 1185l168 -4l-9 -1140q-2 -200 -70.5 -303t-201.5 -103q-287 0 -287 387zM211 1870h162l86 -207h-117z" />
<glyph unicode="&#xfa;" horiz-adv-x="694" d="M100 434l4 1161h170l-6 -1189q0 -65 31.5 -113.5t79.5 -48.5q113 0 113 168l8 1185l168 -4l-9 -1140q-2 -200 -70.5 -303t-201.5 -103q-287 0 -287 387zM276 1659l89 209h165l-129 -209h-125z" />
<glyph unicode="&#xfb;" horiz-adv-x="694" d="M100 434l4 1161h170l-6 -1189q0 -65 31.5 -113.5t79.5 -48.5q113 0 113 168l8 1185l168 -4l-9 -1140q-2 -200 -70.5 -303t-201.5 -103q-287 0 -287 387zM113 1669l186 268l137 7l199 -250l-150 -8l-110 176l-107 -187z" />
<glyph unicode="&#xfc;" horiz-adv-x="694" d="M100 434l4 1161h170l-6 -1189q0 -65 31.5 -113.5t79.5 -48.5q113 0 113 168l8 1185l168 -4l-9 -1140q-2 -200 -70.5 -303t-201.5 -103q-287 0 -287 387zM168 1833l156 4l8 -209l-158 -4zM469 1847l156 4l8 -209l-158 -4z" />
<glyph unicode="&#xfd;" horiz-adv-x="604" d="M-20 1587l163 10l144 -600l110 621l168 6l-196 -893l16 -625l-166 -6l-14 600zM176 1638l88 209h166l-129 -209h-125z" />
<glyph unicode="&#xfe;" horiz-adv-x="663" d="M55 1567l162 6l10 -273h121q289 0 289 -446q0 -382 -186 -428q-21 -5 -187 -14l8 -353l-161 -28zM240 1106l16 -504q3 0 9 -1t9 -1q51 0 82 7t58.5 29t40 67t12.5 116q-2 68 -5 111.5t-12 78t-20 52t-33 29.5t-47.5 15t-66.5 3h-23q-12 0 -20 -2z" />
<glyph unicode="&#xff;" horiz-adv-x="604" d="M-20 1587l163 10l144 -600l110 621l168 6l-196 -893l16 -625l-166 -6l-14 600zM61 1858l156 4l8 -209l-157 -4zM362 1872l156 4l8 -209l-157 -4z" />
<glyph unicode="&#x152;" horiz-adv-x="952" d="M92 424l6 821q2 180 75.5 276.5t213.5 96.5q74 0 127 -33l401 2v-190h-260v-443h226v-188h-222v-498h291l2 -196l-448 -4q-57 -31 -129 -31q-280 0 -283 387zM260 385q0 -77 32.5 -127.5t80.5 -50.5q49 0 77.5 52.5t34.5 135.5l2 875q0 74 -31 126t-81 52q-49 0 -79 -54 t-30 -134z" />
<glyph unicode="&#x153;" horiz-adv-x="952" d="M92 424l6 821q2 180 75.5 276.5t213.5 96.5q74 0 127 -33l401 2v-190h-260v-443h226v-188h-222v-498h291l2 -196l-448 -4q-57 -31 -129 -31q-280 0 -283 387zM260 385q0 -77 32.5 -127.5t80.5 -50.5q49 0 77.5 52.5t34.5 135.5l2 875q0 74 -31 126t-81 52q-49 0 -79 -54 t-30 -134z" />
<glyph unicode="&#x178;" horiz-adv-x="604" d="M-20 1513l159 11l148 -602l110 620l168 6l-196 -893l16 -628l-166 -4l-14 598zM51 1810l156 5l8 -209l-158 -4zM352 1825l156 4l8 -209l-158 -4z" />
<glyph unicode="&#x2c6;" horiz-adv-x="702" d="M303 1677l186 269l138 6l198 -250l-149 -8l-111 176l-106 -187z" />
<glyph unicode="&#x2dc;" horiz-adv-x="440" d="M49 1653v143q21 43 62 43q21 0 94 -37t94 -37q49 0 84 97v-148q-26 -57 -74 -57q-23 0 -94 38t-92 38q-47 0 -74 -80z" />
<glyph unicode="&#x2000;" horiz-adv-x="976" />
<glyph unicode="&#x2001;" horiz-adv-x="1952" />
<glyph unicode="&#x2002;" horiz-adv-x="976" />
<glyph unicode="&#x2003;" horiz-adv-x="1952" />
<glyph unicode="&#x2004;" horiz-adv-x="650" />
<glyph unicode="&#x2005;" horiz-adv-x="488" />
<glyph unicode="&#x2006;" horiz-adv-x="325" />
<glyph unicode="&#x2007;" horiz-adv-x="325" />
<glyph unicode="&#x2008;" horiz-adv-x="244" />
<glyph unicode="&#x2009;" horiz-adv-x="390" />
<glyph unicode="&#x200a;" horiz-adv-x="108" />
<glyph unicode="&#x2010;" horiz-adv-x="462" d="M76 508v131h383v-131h-383z" />
<glyph unicode="&#x2011;" horiz-adv-x="462" d="M76 508v131h383v-131h-383z" />
<glyph unicode="&#x2012;" horiz-adv-x="462" d="M76 508v131h383v-131h-383z" />
<glyph unicode="&#x2013;" horiz-adv-x="804" d="M80 643v193h647v-193h-647z" />
<glyph unicode="&#x2014;" horiz-adv-x="1232" d="M80 643v193h1085v-193h-1085z" />
<glyph unicode="&#x2018;" horiz-adv-x="241" d="M29 1370v223l90 262h59l-37 -249h72v-236h-184z" />
<glyph unicode="&#x2019;" horiz-adv-x="241" d="M35 1620v238h180l2 -226q-18 -46 -50 -139.5t-42 -120.5h-59l36 248h-67z" />
<glyph unicode="&#x201a;" horiz-adv-x="280" d="M86 -8v235l180 2q0 -43 1 -99.5t1 -68.5v-57q-23 -60 -92 -260h-57l35 248h-68z" />
<glyph unicode="&#x201c;" horiz-adv-x="489" d="M29 1370v223l90 262h59l-37 -249h72v-234zM272 1370v223l90 262h60l-37 -249h72v-236h-185z" />
<glyph unicode="&#x201d;" horiz-adv-x="499" d="M35 1620v238h180l2 -226q-18 -46 -50 -139.5t-42 -120.5h-59l36 248h-67zM260 1620v238h180l4 -226q-10 -26 -94 -260h-57l37 248h-70z" />
<glyph unicode="&#x201e;" horiz-adv-x="636" d="M86 -8v235l180 2q0 -43 1 -99.5t1 -68.5v-57q-23 -60 -92 -260h-57l35 248h-68zM344 -8v235l180 2q0 -43 1 -99.5t1 -68.5v-57q-23 -60 -92 -260h-57l35 248h-68z" />
<glyph unicode="&#x2022;" horiz-adv-x="921" d="M61 676q0 160 114 274.5t274 114.5q161 0 275 -114.5t114 -274.5q0 -162 -113.5 -275.5t-275.5 -113.5q-160 0 -274 113.5t-114 275.5z" />
<glyph unicode="&#x2026;" horiz-adv-x="1161" d="M111 16v213h157v-209zM489 16v213h158v-209zM874 -4v213h158v-209z" />
<glyph unicode="&#x202f;" horiz-adv-x="390" />
<glyph unicode="&#x2039;" horiz-adv-x="464" d="M31 666v147l362 256v-209l-186 -119l186 -120v-201z" />
<glyph unicode="&#x203a;" horiz-adv-x="473" d="M80 420v207l188 118l-188 119v205l360 -248v-149z" />
<glyph unicode="&#x205f;" horiz-adv-x="488" />
<glyph unicode="&#x20ac;" horiz-adv-x="688" d="M16 492l4 122l78 2l-8 254l-63 -2v123l61 4l-6 250q0 168 74.5 264.5t212.5 96.5q149 0 241 -76l-43 -178q-49 73 -168 73q-76 0 -113.5 -40t-37.5 -128l8 -256h240l-29 -127h-209l8 -249l148 4l-25 -125l-119 -4l4 -162q15 -133 113 -133q113 0 113 233l157 2 q-18 -415 -274 -415q-269 0 -281 407l-2 64z" />
<glyph unicode="&#x2122;" horiz-adv-x="1093" d="M29 1317l377 35l6 -121l-121 -12l28 -562l-129 -12l-28 561l-125 -12zM530 1368l134 12l88 -276l28 -127l13 127l55 293l129 12l37 -682l-105 -10l-16 260v149l-70 -417l-55 -7l-123 400l19 -154l12 -254l-109 -10z" />
</font>
</defs>
</svg>
